<svg xmlns="http://www.w3.org/2000/svg" xmlns:xlink="http://www.w3.org/1999/xlink" version="1.1" x="0px" y="0px" viewBox="0 0 64 80" style="enable-background:new 0 0 64 64;" xml:space="preserve"><path d="M15,45.733h-4c-0.553,0-1,0.448-1,1v4c0,0.552,0.447,1,1,1h4c0.553,0,1-0.448,1-1v-4C16,46.181,15.553,45.733,15,45.733z   M14,49.733h-2v-2h2V49.733z"/><path d="M25,45.733h-4c-0.553,0-1,0.448-1,1v4c0,0.552,0.447,1,1,1h4c0.553,0,1-0.448,1-1v-4C26,46.181,25.553,45.733,25,45.733z   M24,49.733h-2v-2h2V49.733z"/><path d="M3.457,45.972c0.478,0.287,1.01,0.431,1.542,0.431c0,0,0.001,0,0.001,0V61c0,0.552,0.447,1,1,1h24c0.553,0,1-0.448,1-1  V46.395c0.533,0,1.065-0.135,1.543-0.423C33.455,45.425,34,44.463,34,43.4v-0.467c0-1.11-0.608-2.124-1.588-2.647l-13-6.933  c-0.132-0.07-0.274-0.109-0.412-0.158V27v-4v-1c0-0.308-0.142-0.599-0.385-0.788c-0.243-0.19-0.561-0.257-0.857-0.182  c-2.459,0.615-5.057,0.615-7.516,0c-0.297-0.073-0.614-0.007-0.857,0.182S9,21.692,9,22v5c0,0.459,0.312,0.859,0.758,0.97  c1.388,0.347,2.814,0.521,4.242,0.521c1.005,0,2.009-0.091,3-0.263v4.967c-0.139,0.049-0.28,0.088-0.412,0.158l-13,6.933  C2.608,40.809,2,41.823,2,42.933V43.4C2,44.463,2.545,45.425,3.457,45.972z M21,60h-6v-1c0-1.654,1.346-3,3-3  c0.795,0,1.551,0.313,2.118,0.872C20.687,57.449,21,58.205,21,59V60z M23,60v-1c0-1.324-0.518-2.579-1.468-3.542  C20.578,54.518,19.323,54,18,54c-2.757,0-5,2.243-5,5v1H7V45.733l10.529-5.616c0.295-0.157,0.646-0.157,0.941,0L29,45.733V60H23z   M11,26.199v-2.966c1.98,0.344,4.02,0.344,6,0v2.966C15.023,26.588,12.977,26.588,11,26.199z M4,42.933  c0-0.37,0.203-0.708,0.529-0.882l13-6.933c0.295-0.157,0.646-0.157,0.941,0l13,6.933C31.797,42.225,32,42.563,32,42.933V43.4  c0,0.511-0.34,0.77-0.485,0.857c-0.146,0.087-0.534,0.266-0.985,0.025l-11.117-5.929c-0.885-0.472-1.939-0.472-2.824,0L5.471,44.282  c-0.452,0.241-0.84,0.062-0.985-0.025C4.34,44.169,4,43.911,4,43.4V42.933z"/><path d="M58.162,23.757C58.705,22.95,59,21.999,59,21c0-2.757-2.243-5-5-5s-5,2.243-5,5c0,0.999,0.295,1.95,0.838,2.757  C47.518,24.924,46,27.308,46,30v2c0,0.552,0.447,1,1,1h14c0.553,0,1-0.448,1-1v-2C62,27.308,60.482,24.924,58.162,23.757z M60,31H48  v-1c0-2.315,1.572-4.311,3.824-4.854c0.375-0.09,0.665-0.389,0.744-0.767s-0.065-0.768-0.373-1.001C51.436,22.8,51,21.933,51,21  c0-1.654,1.346-3,3-3s3,1.346,3,3c0,0.933-0.436,1.8-1.195,2.378c-0.308,0.233-0.452,0.623-0.373,1.001s0.369,0.676,0.744,0.767  C58.428,25.689,60,27.685,60,30V31z"/><path d="M29,2c-2.757,0-5,2.243-5,5c0,0.999,0.295,1.95,0.838,2.757C22.518,10.924,21,13.308,21,16v2c0,0.552,0.447,1,1,1h14  c0.553,0,1-0.448,1-1v-2c0-2.692-1.518-5.076-3.838-6.243C33.705,8.95,34,7.999,34,7C34,4.243,31.757,2,29,2z M35,16v1H23v-1  c0-2.315,1.572-4.311,3.824-4.854c0.375-0.09,0.665-0.389,0.744-0.767s-0.065-0.768-0.373-1.001C26.436,8.8,26,7.933,26,7  c0-1.654,1.346-3,3-3s3,1.346,3,3c0,0.933-0.436,1.8-1.195,2.378c-0.308,0.233-0.452,0.623-0.373,1.001s0.369,0.676,0.744,0.767  C33.428,11.689,35,13.685,35,16z"/><path d="M58.162,52.757C58.705,51.95,59,50.999,59,50c0-2.757-2.243-5-5-5s-5,2.243-5,5c0,0.999,0.295,1.95,0.838,2.757  C47.518,53.924,46,56.308,46,59v2c0,0.552,0.447,1,1,1h14c0.553,0,1-0.448,1-1v-2C62,56.308,60.482,53.924,58.162,52.757z M60,60H48  v-1c0-2.315,1.572-4.311,3.824-4.854c0.375-0.09,0.665-0.389,0.744-0.767s-0.065-0.768-0.373-1.001C51.436,51.8,51,50.933,51,50  c0-1.654,1.346-3,3-3s3,1.346,3,3c0,0.933-0.436,1.8-1.195,2.378c-0.308,0.233-0.452,0.623-0.373,1.001s0.369,0.676,0.744,0.767  C58.428,54.689,60,56.685,60,59V60z"/><path d="M35.485,39.874l6.542-3.634l-0.956,2.389l1.857,0.743l2-5c0.11-0.276,0.092-0.586-0.05-0.848s-0.392-0.446-0.683-0.504l-5-1  l-0.393,1.961l2.333,0.467l-6.622,3.679L35.485,39.874z"/><path d="M30,34v-9l1.2,1.6l1.6-1.2l-3-4c-0.377-0.504-1.223-0.504-1.6,0l-3,4l1.6,1.2L28,25v9H30z"/><path d="M41.6,56.8l4-3c0.252-0.188,0.4-0.485,0.4-0.8s-0.148-0.611-0.4-0.8l-4-3L40.4,50.8L42,52h-9v2h9l-1.6,1.2L41.6,56.8z"/><text x="0" y="79" fill="#000000" font-size="5px" font-weight="bold" font-family="'Helvetica Neue', Helvetica, Arial-Unicode, Arial, Sans-serif">Created by Nithinan Tatah</text><text x="0" y="84" fill="#000000" font-size="5px" font-weight="bold" font-family="'Helvetica Neue', Helvetica, Arial-Unicode, Arial, Sans-serif">from the Noun Project</text></svg>