<svg xmlns="http://www.w3.org/2000/svg" xmlns:xlink="http://www.w3.org/1999/xlink" version="1.1" x="0px" y="0px" viewBox="0 0 64 80" style="enable-background:new 0 0 64 64;" xml:space="preserve"><path d="M32,2c-11.579,0-21,9.42-21,21c0,5.378,1.806,10.688,5.085,14.951l12.449,16.184C25.116,54.393,19,55.239,19,58  c0,3.158,8.172,4,13,4s13-0.842,13-4c0-2.761-6.116-3.607-9.534-3.865l12.449-16.184c1.176-1.529,2.155-3.197,2.937-4.951H51  c0-0.092-0.016-0.181-0.021-0.272C52.299,29.669,53,26.348,53,23C53,11.42,43.579,2,32,2z M17,35.78V33  c0-2.026,1.529-3.725,3.558-3.951c0.398-0.044,0.731-0.322,0.847-0.705c0.116-0.383-0.009-0.799-0.315-1.056  C20.396,26.71,20,25.876,20,25c0-1.654,1.346-3,3-3s3,1.346,3,3c0,0.876-0.396,1.71-1.089,2.289  c-0.307,0.257-0.432,0.672-0.315,1.056c0.115,0.383,0.448,0.661,0.847,0.705c1.724,0.192,3.076,1.451,3.447,3.067  C27.747,33.034,27,34.424,27,36c0,0.817,0.205,1.617,0.59,2.334c-2.201,1.461-3.575,3.951-3.587,6.628l-6.331-8.231  C17.434,36.423,17.22,36.099,17,35.78z M34.538,39.57C36.642,40.556,38,42.687,38,45v2.559l-6,7.8l-6-7.8V45  c0-2.313,1.358-4.444,3.462-5.43c0.286-0.134,0.492-0.396,0.556-0.707c0.062-0.311-0.025-0.632-0.237-0.868  C29.277,37.437,29,36.728,29,36c0-1.654,1.346-3,3-3s3,1.346,3,3c0,0.728-0.277,1.437-0.78,1.996  c-0.212,0.235-0.3,0.557-0.237,0.868C34.046,39.174,34.252,39.436,34.538,39.57z M42.969,58.001C42.408,58.754,38.47,60,32,60  s-10.408-1.246-10.969-1.999c0.468-0.605,3.47-1.723,8.976-1.951l1.2,1.559C31.396,57.856,31.689,58,32,58s0.604-0.144,0.793-0.39  l1.2-1.559C39.499,56.279,42.501,57.397,42.969,58.001z M46.329,36.731l-6.331,8.231c-0.013-2.677-1.386-5.167-3.587-6.628  C36.795,37.617,37,36.817,37,36v-3c0-2.026,1.529-3.725,3.558-3.951c0.398-0.044,0.731-0.322,0.847-0.705  c0.116-0.383-0.009-0.799-0.315-1.056C40.396,26.71,40,25.876,40,25c0-1.654,1.346-3,3-3s3,1.346,3,3  c0,0.876-0.396,1.71-1.089,2.289c-0.307,0.257-0.432,0.672-0.315,1.056c0.115,0.383,0.448,0.661,0.847,0.705  c1.811,0.202,3.216,1.58,3.498,3.314C48.236,33.908,47.369,35.379,46.329,36.731z M47.323,27.49C47.762,26.739,48,25.883,48,25  c0-2.757-2.243-5-5-5s-5,2.243-5,5c0,0.883,0.238,1.739,0.677,2.49c-1.904,0.795-3.287,2.528-3.606,4.594  C34.221,31.416,33.163,31,32,31c-0.447,0-0.872,0.078-1.284,0.188c-0.531-1.663-1.772-3.021-3.393-3.698  C27.762,26.739,28,25.883,28,25c0-2.757-2.243-5-5-5s-5,2.243-5,5c0,0.883,0.238,1.739,0.677,2.49  c-1.982,0.827-3.386,2.675-3.627,4.853C13.719,29.421,13,26.227,13,23c0-10.477,8.523-19,19-19s19,8.523,19,19  c0,2.261-0.363,4.504-1.029,6.653C49.324,28.702,48.409,27.943,47.323,27.49z"/><path d="M30.199,25.82l-0.398,1.96C30.521,27.926,31.26,28,32,28c1.529,0,3.01-0.308,4.4-0.916L35.6,25.251  C33.912,25.988,32.001,26.187,30.199,25.82z"/><path d="M32,6c-6.065,0-11,4.935-11,11h2c0-4.962,4.037-9,9-9s9,4.038,9,9h2C43,10.935,38.065,6,32,6z"/><path d="M32.625,10.219c-0.365-0.292-0.885-0.292-1.25,0l-5,4c-0.331,0.265-0.459,0.711-0.318,1.112S26.575,16,27,16h1v4  c0,0.552,0.447,1,1,1h6c0.553,0,1-0.448,1-1v-4h1c0.425,0,0.803-0.268,0.943-0.669s0.013-0.847-0.318-1.112L32.625,10.219z   M32,12.281L34.149,14h-4.299L32,12.281z M34,19h-4v-3h4V19z"/><text x="0" y="79" fill="#000000" font-size="5px" font-weight="bold" font-family="'Helvetica Neue', Helvetica, Arial-Unicode, Arial, Sans-serif">Created by Nithinan Tatah</text><text x="0" y="84" fill="#000000" font-size="5px" font-weight="bold" font-family="'Helvetica Neue', Helvetica, Arial-Unicode, Arial, Sans-serif">from the Noun Project</text></svg>