<svg xmlns="http://www.w3.org/2000/svg" xmlns:xlink="http://www.w3.org/1999/xlink" version="1.1" x="0px" y="0px" viewBox="0 0 64 80" style="enable-background:new 0 0 64 64;" xml:space="preserve"><path d="M36.46,20.452l3.01-3.504c0.523-0.609,0.757-1.377,0.658-2.159c-0.1-0.784-0.539-1.501-1.206-1.966l-2.35-1.642  c-0.173-0.123-0.374-0.167-0.572-0.167V11h-8v0.014c-0.203,0-0.408,0.047-0.585,0.175l-2.153,1.552  c-0.647,0.467-1.062,1.147-1.166,1.917c-0.103,0.756,0.108,1.506,0.595,2.11l2.85,3.548l-4.299,5.006  c-0.184,0.214-0.269,0.496-0.233,0.776s0.188,0.533,0.419,0.694l4,2.795c0.174,0.122,0.374,0.181,0.572,0.181  c0.283,0,0.562-0.119,0.76-0.349l3.149-3.666l3.113,3.873C35.218,29.872,35.508,30,35.801,30c0.207,0,0.417-0.064,0.596-0.197  l3.91-2.906c0.218-0.162,0.36-0.406,0.396-0.676c0.034-0.27-0.042-0.541-0.213-0.753L36.46,20.452z M32,15.123L30.177,13h3.646  L32,15.123z M26.249,15.516c-0.178-0.222-0.191-0.443-0.171-0.59c0.029-0.22,0.155-0.42,0.354-0.562l1.408-1.016l2.842,3.31  l-1.817,2.115L26.249,15.516z M27.831,27.43l-2.353-1.644l10.69-12.448l1.608,1.124c0.207,0.145,0.337,0.35,0.366,0.577  c0.027,0.215-0.041,0.43-0.191,0.605L27.831,27.43z M35.977,27.623l-2.744-3.413l1.903-2.215l3.145,3.916L35.977,27.623z"/><rect x="18" y="53" width="2" height="9"/><path d="M7,53.917V62h2v-9c0-0.553-0.447-1-1-1c-2.206,0-4-1.794-4-4v-8c0-0.552,0.448-1,1-1s1,0.448,1,1v7c0,1.654,1.346,3,3,3  h2.38c0.417,0,0.79-0.259,0.937-0.648s0.035-0.83-0.278-1.104C11.369,47.662,11,46.864,11,46c0-0.917,0.412-1.772,1.13-2.346  c0.727-0.582,1.645-0.785,2.584-0.573c1.056,0.238,1.938,1.109,2.194,2.167c0.272,1.122-0.081,2.243-0.946,2.999  c-0.313,0.273-0.425,0.714-0.278,1.104C15.83,49.741,16.203,50,16.62,50H19c1.654,0,3,1.346,3,3v9h2v-9c0-2.757-2.243-5-5-5h-0.419  c0.438-0.987,0.542-2.105,0.271-3.225c-0.438-1.806-1.89-3.236-3.696-3.646c-1.519-0.342-3.078,0.006-4.274,0.962  C9.686,43.047,9,44.472,9,46c0,0.694,0.148,1.374,0.427,2H9c-0.552,0-1-0.448-1-1v-7c0-1.654-1.346-3-3-3s-3,1.346-3,3v8  C2,50.968,4.166,53.439,7,53.917z"/><rect x="44" y="53" width="2" height="9"/><path d="M59,37c-1.654,0-3,1.346-3,3v7c0,0.552-0.448,1-1,1h-0.427C54.852,47.374,55,46.694,55,46c0-1.528-0.686-2.953-1.881-3.908  s-2.752-1.304-4.274-0.962c-1.807,0.409-3.258,1.84-3.696,3.646c-0.271,1.119-0.168,2.237,0.271,3.225H45c-2.757,0-5,2.243-5,5v9h2  v-9c0-1.654,1.346-3,3-3h2.38c0.417,0,0.79-0.259,0.937-0.648c0.146-0.391,0.035-0.831-0.278-1.104  c-0.865-0.756-1.219-1.877-0.946-2.999c0.257-1.058,1.139-1.929,2.194-2.167c0.936-0.212,1.854-0.01,2.584,0.573  C52.588,44.228,53,45.083,53,46c0,0.864-0.369,1.662-1.038,2.247c-0.313,0.274-0.425,0.715-0.278,1.104S52.203,50,52.62,50H55  c1.654,0,3-1.346,3-3v-7c0-0.552,0.448-1,1-1s1,0.448,1,1v8c0,2.206-1.794,4-4,4c-0.553,0-1,0.447-1,1v9h2v-8.083  c2.834-0.478,5-2.949,5-5.917v-8C62,38.346,60.654,37,59,37z"/><path d="M50.363,5.469c-4.697-4.615-12.336-4.615-17.033,0l-1.431,1.405l-1.431-1.405c-4.697-4.615-12.336-4.615-17.033,0  c-2.28,2.241-3.536,5.223-3.536,8.395s1.256,6.152,3.536,8.393l17.763,17.457C31.393,39.904,31.646,40,31.899,40  s0.507-0.096,0.701-0.287l17.763-17.457c2.28-2.24,3.536-5.221,3.536-8.393S52.644,7.71,50.363,5.469z M48.961,20.83L31.899,37.598  L14.838,20.83c-1.895-1.862-2.938-4.336-2.938-6.967s1.043-5.106,2.938-6.969c1.961-1.928,4.538-2.892,7.114-2.892  s5.153,0.964,7.114,2.892l2.132,2.095c0.391,0.383,1.012,0.383,1.402,0l2.132-2.095c3.922-3.855,10.307-3.855,14.229,0  c1.896,1.862,2.938,4.338,2.938,6.969S50.855,18.968,48.961,20.83z"/><rect x="45" y="31" width="2" height="2"/><rect x="49" y="35" width="2" height="2"/><rect x="17" y="31" width="2" height="2"/><rect x="13" y="35" width="2" height="2"/><text x="0" y="79" fill="#000000" font-size="5px" font-weight="bold" font-family="'Helvetica Neue', Helvetica, Arial-Unicode, Arial, Sans-serif">Created by Nithinan Tatah</text><text x="0" y="84" fill="#000000" font-size="5px" font-weight="bold" font-family="'Helvetica Neue', Helvetica, Arial-Unicode, Arial, Sans-serif">from the Noun Project</text></svg>